<svg xmlns="http://www.w3.org/2000/svg" 
xmlns:xlink="http://www.w3.org/1999/xlink" 
viewBox="0 0 64 64"><title>Artboard-38</title><g id="Shopping"><path d="M58,10H56a1,1,0,0,0-1,1v3A2,2,0,0,1,52.853,16,2.13,2.13,0,0,1,51,13.831V11a1,1,0,0,0-1-1H42a1,1,0,0,0-1,1v3A2,2,0,0,1,38.853,16,2.13,2.13,0,0,1,37,13.831V11a1,1,0,0,0-1-1H28a1,1,0,0,0-1,1v3a1.986,1.986,0,0,1-.587,1.413A2.043,2.043,0,0,1,24.852,16,2.13,2.13,0,0,1,23,13.831V11a1,1,0,0,0-1-1H14a1,1,0,0,0-1,1v3a1.986,1.986,0,0,1-.587,1.413A2.046,2.046,0,0,1,10.852,16,2.13,2.13,0,0,1,9,13.831V11a1,1,0,0,0-1-1H6a6.006,6.006,0,0,0-6,6V54a6.006,6.006,0,0,0,6,6H58a6.006,6.006,0,0,0,6-6V16A6.006,6.006,0,0,0,58,10Z" style="fill:#e6edff"/><path d="M58,10H56a1,1,0,0,0-1,1v3A2,2,0,0,1,52.853,16,2.13,2.13,0,0,1,51,13.831V11a1,1,0,0,0-1-1H42a1,1,0,0,0-1,1v3A2,2,0,0,1,38.853,16,2.13,2.13,0,0,1,37,13.831V11a1,1,0,0,0-1-1H28a1,1,0,0,0-1,1v3a1.986,1.986,0,0,1-.587,1.413A2.043,2.043,0,0,1,24.852,16,2.13,2.13,0,0,1,23,13.831V11a1,1,0,0,0-1-1H14a1,1,0,0,0-1,1v3a1.986,1.986,0,0,1-.587,1.413A2.046,2.046,0,0,1,10.852,16,2.13,2.13,0,0,1,9,13.831V11a1,1,0,0,0-1-1H6a6.006,6.006,0,0,0-6,6v6H64V16A6.006,6.006,0,0,0,58,10Z" style="fill:#e63b47"/><path d="M11,4A4,4,0,0,0,7,8v6a4,4,0,0,0,8,0V8A4,4,0,0,0,11,4Z" style="fill:#4aa4f2"/><path d="M25,4a4,4,0,0,0-4,4v6a4,4,0,0,0,8,0V8A4,4,0,0,0,25,4Z" style="fill:#4aa4f2"/><path d="M39,4a4,4,0,0,0-4,4v6a4,4,0,0,0,8,0V8A4,4,0,0,0,39,4Z" style="fill:#4aa4f2"/><path d="M53,4a4,4,0,0,0-4,4v6a4,4,0,0,0,8,0V8A4,4,0,0,0,53,4Z" style="fill:#4aa4f2"/><circle cx="27" cy="53" r="3" style="fill:#2a72db"/><circle cx="39" cy="53" r="3" style="fill:#2a72db"/><path d="M20.5,47H44a1,1,0,0,0,.962-.726l4-14A1,1,0,0,0,48,31H22.864l-.885-4.206A1,1,0,0,0,21,26H16a1,1,0,0,0,0,2h4.188c4.57,21.7,3.021,14.345,3.58,17H20.5a3.5,3.5,0,0,0,0,7H46a1,1,0,0,0,0-2H20.5a1.5,1.5,0,0,1,0-3Z" style="fill:#4aa4f2"/></g></svg>